<svg xmlns="http://www.w3.org/2000/svg" viewBox="0 0 52 52" width="52" height="52">
  <defs>
    <linearGradient id="bg" x1="0" y1="0" x2="52" y2="52" gradientUnits="userSpaceOnUse">
      <stop offset="0%" stop-color="#7C3AED"/>
      <stop offset="100%" stop-color="#2563EB"/>
    </linearGradient>
    <linearGradient id="shine" x1="0" y1="0" x2="52" y2="26" gradientUnits="userSpaceOnUse">
      <stop offset="0%" stop-color="#ffffff" stop-opacity="0.08"/>
      <stop offset="100%" stop-color="#ffffff" stop-opacity="0"/>
    </linearGradient>
  </defs>
  <rect width="52" height="52" rx="14" fill="url(#bg)"/>
  <rect width="52" height="26" rx="14" fill="url(#shine)"/>
  <circle cx="26" cy="26" r="11" fill="none" stroke="white" stroke-width="2" stroke-opacity="0.35"/>
  <circle cx="26" cy="26" r="7" fill="white" fill-opacity="0.95"/>
  <line x1="26" y1="15" x2="26" y2="8"  stroke="white" stroke-width="2.5" stroke-linecap="round"/>
  <line x1="35" y1="20" x2="41" y2="16" stroke="white" stroke-width="2.5" stroke-linecap="round"/>
  <line x1="35" y1="32" x2="41" y2="36" stroke="white" stroke-width="2.5" stroke-linecap="round"/>
  <line x1="26" y1="37" x2="26" y2="44" stroke="white" stroke-width="2.5" stroke-linecap="round"/>
  <line x1="17" y1="32" x2="11" y2="36" stroke="white" stroke-width="2.5" stroke-linecap="round"/>
  <line x1="17" y1="20" x2="11" y2="16" stroke="white" stroke-width="2.5" stroke-linecap="round"/>
  <circle cx="26" cy="7"  r="3" fill="white"/>
  <circle cx="43" cy="15" r="3" fill="white"/>
  <circle cx="43" cy="37" r="3" fill="white"/>
  <circle cx="26" cy="45" r="3" fill="white"/>
  <circle cx="9"  cy="37" r="3" fill="white"/>
  <circle cx="9"  cy="15" r="3" fill="white"/>
</svg>
